Coordinates
version=1
nRows=43
nColumns=12
inDegrees=yes

Units are S.I. units (second, meters, Newtons, ...)
Angles are in degrees

endheader
time	SC_y	SC_z	SC_x	AC_y	AC_z	AC_x	GH_y	GH_z	GH_yy	EL_x	PS_y
       0.0              -28.54        -0.2517          23.84          69.23         0.6149          9.306         -169.7          61.14           95.2          16.43           52.1
   0.03788              -28.54        -0.2505          23.84          69.23         0.6125          9.305         -169.7          61.15          95.19          16.43          52.11
   0.07577              -28.54        -0.2493          23.84          69.23         0.6098          9.304         -169.6          61.15          95.19          16.43          52.12
    0.1137              -28.54         -0.248          23.84          69.22          0.607          9.302         -169.6          61.15          95.19          16.43          52.12
    0.1515              -28.54        -0.2467          23.83          69.22         0.6041          9.301         -169.6          61.16          95.18          16.43          52.13
    0.1894              -28.53        -0.2452          23.83          69.21         0.6009          9.299         -169.6          61.16          95.18          16.43          52.14
    0.2273              -28.53        -0.2436          23.83          69.21         0.5975          9.297         -169.6          61.17          95.18          16.43          52.14
    0.2652              -28.53         -0.242          23.83           69.2         0.5939          9.295         -169.6          61.17          95.17          16.43          52.15
    0.3031              -28.53        -0.2402          23.83           69.2           0.59          9.293         -169.5          61.17          95.17          16.43          52.16
     0.341              -28.52        -0.2383          23.82          69.19         0.5859          9.291         -169.5          61.18          95.16          16.44          52.17
    0.3788              -28.52        -0.2362          23.82          69.19         0.5814          9.289         -169.5          61.19          95.16          16.44          52.18
    0.4167              -28.52         -0.234          23.82          69.18         0.5766          9.286         -169.5          61.19          95.15          16.44          52.19
    0.4546              -28.51        -0.2316          23.81          69.17         0.5714          9.284         -169.5           61.2          95.15          16.44          52.21
    0.4925              -28.51         -0.229          23.81          69.17         0.5658          9.281         -169.4          61.21          95.14          16.44          52.22
    0.5304               -28.5        -0.2262          23.81          69.16         0.5598          9.278         -169.4          61.21          95.14          16.44          52.23
    0.5683               -28.5        -0.2232           23.8          69.15         0.5532          9.274         -169.4          61.22          95.13          16.44          52.25
    0.6061               -28.5        -0.2199           23.8          69.14         0.5461           9.27         -169.3          61.23          95.12          16.44          52.27
     0.644              -28.49        -0.2163           23.8          69.13         0.5383          9.266         -169.3          61.24          95.11          16.45          52.29
    0.6819              -28.48        -0.2124          23.79          69.12         0.5298          9.262         -169.3          61.25           95.1          16.45          52.31
    0.7198              -28.48        -0.2081          23.78          69.11         0.5205          9.257         -169.2          61.26          95.09          16.45          52.33
    0.7577              -28.47        -0.2034          23.78          69.09         0.5103          9.252         -169.2          61.27          95.08          16.45          52.35
    0.7956              -28.46        -0.1983          23.77          69.08         0.4991          9.246         -169.1          61.29          95.07          16.45          52.38
    0.8335              -28.45        -0.1925          23.77          69.06         0.4867           9.24         -169.1           61.3          95.05          16.46          52.41
    0.8713              -28.44        -0.1862          23.76          69.04         0.4729          9.232         -169.0          61.32          95.04          16.46          52.44
    0.9092              -28.43        -0.1792          23.75          69.02         0.4577          9.224         -168.9          61.34          95.02          16.46          52.48
    0.9471              -28.42        -0.1713          23.74           69.0         0.4406          9.216         -168.8          61.36           95.0          16.46          52.52
     0.985              -28.41        -0.1625          23.73          68.97         0.4215          9.206         -168.7          61.39          94.98          16.47          52.56
     1.023              -28.39        -0.1526          23.71          68.95            0.4          9.195         -168.6          61.41          94.96          16.47          52.62
     1.061              -28.38        -0.1414           23.7          68.91         0.3758          9.182         -168.5          61.44          94.93          16.48          52.67
     1.099              -28.36        -0.1287          23.68          68.88         0.3482          9.168         -168.4          61.48           94.9          16.48          52.74
     1.137              -28.34        -0.1142          23.67          68.83         0.3168          9.151         -168.2          61.52          94.87          16.49          52.81
     1.174              -28.31       -0.09753          23.65          68.79         0.2807          9.132         -168.1          61.56          94.83           16.5           52.9
     1.212              -28.28       -0.07832          23.62          68.73          0.239          9.111         -167.9          61.62          94.78          16.51           53.0
      1.25              -28.25       -0.05599          23.59          68.67         0.1905          9.086         -167.6          61.68          94.73          16.52          53.12
     1.288              -28.21       -0.02986          23.56          68.59         0.1339          9.056         -167.4          61.75          94.66          16.53          53.25
     1.326              -28.16      0.0009428          23.52           68.5        0.06708          9.021         -167.1          61.83          94.59          16.54          53.41
     1.364              -28.11        0.03755          23.48          68.39        -0.0123           8.98         -166.7          61.93           94.5          16.56           53.6
     1.402              -28.04        0.08142          23.42          68.27        -0.1075          8.931         -166.2          62.05           94.4          16.58          53.83
      1.44              -27.96         0.1345          23.35          68.11        -0.2226          8.871         -165.7          62.19          94.27           16.6           54.1
     1.477              -27.86         0.1993          23.27          67.92        -0.3632          8.798         -165.0          62.37          94.11          16.63          54.44
     1.515              -27.74         0.2794          23.17          67.69        -0.5368          8.708         -164.2          62.59          93.92          16.66          54.85
     1.553              -27.59         0.3792          23.04           67.4        -0.7532          8.595         -163.2          62.86          93.68          16.71          55.37
     1.591               -27.4         0.5049          22.89          67.04         -1.026          8.453         -161.9           63.2          93.38          16.76          56.02
